<?xml version="1.0" standalone="no"?>
<!DOCTYPE svg PUBLIC "-//W3C//DTD SVG 20010904//EN"
 "http://www.w3.org/TR/2001/REC-SVG-20010904/DTD/svg10.dtd">
<svg version="1.0" xmlns="http://www.w3.org/2000/svg"
 width="300.000000pt" height="300.000000pt" viewBox="0 0 300.000000 300.000000"
 preserveAspectRatio="xMidYMid meet">

<g transform="translate(0.000000,300.000000) scale(0.100000,-0.100000)"
fill="#000000" stroke="none">
<path d="M1800 1768 c-164 -83 -106 -338 77 -338 46 0 107 29 111 53 4 21 -16
22 -54 2 -37 -19 -77 -19 -115 0 -94 49 -91 210 6 251 46 19 73 18 118 -6 32
-17 38 -18 43 -6 8 21 -4 36 -42 52 -48 20 -93 17 -144 -8z"/>
<path d="M387 1773 c-4 -3 -7 -79 -7 -169 0 -128 3 -163 14 -167 28 -11 36 17
37 123 l0 105 55 -107 c32 -64 60 -108 69 -108 9 0 38 46 72 113 l58 112 3
-117 c2 -110 4 -118 22 -118 19 0 20 8 20 170 0 156 -1 170 -18 170 -12 0 -37
-39 -86 -137 l-68 -138 -69 138 c-63 125 -83 150 -102 130z"/>
<path d="M1108 1746 c-7 -60 -3 -291 5 -303 4 -7 14 -10 22 -6 11 4 15 22 15
69 l0 64 34 0 c32 0 38 -5 72 -62 43 -72 53 -81 71 -66 11 9 9 18 -8 47 -57
94 -55 84 -26 114 39 39 38 107 -2 148 -27 27 -35 29 -104 29 l-75 0 -4 -34z
m156 -28 c38 -54 2 -108 -71 -108 l-43 0 0 65 0 65 49 0 c40 0 53 -4 65 -22z"/>
<path d="M1426 1623 c-36 -87 -66 -164 -66 -170 0 -28 37 -12 53 22 l17 35 80
0 81 0 14 -32 c17 -41 23 -48 41 -41 19 7 18 15 -14 91 -16 37 -46 109 -67
160 -27 63 -44 92 -56 92 -11 0 -35 -44 -83 -157z m117 9 c15 -37 27 -71 27
-75 0 -4 -29 -7 -64 -7 l-64 0 31 75 c17 41 34 75 37 75 4 0 19 -30 33 -68z"/>
<path d="M2076 1764 c-8 -21 -6 -273 3 -304 7 -24 10 -25 105 -28 100 -3 130
6 119 34 -4 11 -26 14 -94 14 l-89 0 0 150 c0 141 -1 150 -19 150 -10 0 -22
-7 -25 -16z"/>
<path d="M2370 1611 c0 -145 2 -170 16 -175 20 -8 198 -8 218 0 22 9 20 31 -4
37 -10 3 -43 5 -72 5 -115 1 -106 -3 -110 48 -2 25 -1 49 2 54 3 5 37 10 75
12 54 2 70 6 70 18 0 12 -16 16 -72 18 l-73 3 0 39 c0 21 -3 45 -6 54 -5 13 9
16 97 18 90 3 104 5 107 21 3 15 -8 17 -122 17 l-126 0 0 -169z"/>
<path d="M902 1758 c-7 -7 -12 -21 -11 -32 1 -18 2 -17 8 4 6 20 13 25 37 23
22 -2 25 0 14 7 -20 13 -34 12 -48 -2z"/>
<path d="M925 1700 c-16 -4 -24 -8 -17 -9 6 0 12 -9 13 -18 0 -14 2 -15 6 -3
4 8 13 20 22 27 18 14 18 14 -24 3z"/>
<path d="M1006 1641 c-14 -16 -15 -23 -6 -38 7 -11 9 -12 7 -3 -6 20 11 50 28
50 8 0 21 -10 29 -22 9 -12 16 -17 16 -11 0 15 -28 43 -44 43 -7 0 -21 -9 -30
-19z"/>
<path d="M920 1604 l0 -46 -35 4 c-21 2 -35 0 -35 -7 0 -7 14 -9 34 -7 33 4
35 2 39 -29 2 -19 5 3 5 49 1 45 0 82 -3 82 -3 0 -5 -21 -5 -46z"/>
<path d="M1040 1590 c-23 -7 -23 -8 -3 -9 12 -1 25 4 28 9 3 6 5 10 3 9 -2 -1
-14 -5 -28 -9z"/>
<path d="M792 1578 c-7 -7 -12 -19 -11 -27 0 -11 3 -10 8 4 4 11 21 23 37 26
28 6 28 7 4 8 -15 0 -31 -4 -38 -11z"/>
<path d="M902 1288 c-7 -7 -12 -21 -11 -32 1 -18 2 -17 8 4 5 19 14 25 33 25
15 -1 24 3 22 7 -8 12 -38 10 -52 -4z"/>
<path d="M1020 1296 c0 -2 11 -6 25 -8 13 -3 22 -1 19 3 -5 9 -44 13 -44 5z"/>
<path d="M1480 1255 c0 -43 1 -45 28 -44 23 2 24 2 5 6 -27 5 -31 30 -5 36 16
4 16 5 0 6 -26 2 -22 29 5 34 19 4 18 4 -5 6 -27 1 -28 -1 -28 -44z"/>
<path d="M1693 1293 c9 -2 23 -2 30 0 6 3 -1 5 -18 5 -16 0 -22 -2 -12 -5z"/>
<path d="M1890 1293 c8 -3 22 -11 30 -17 13 -10 13 -9 1 7 -7 9 -21 17 -30 16
-13 0 -14 -1 -1 -6z"/>
<path d="M1131 1263 c1 -18 3 -21 6 -10 2 9 9 15 14 12 5 -3 6 1 3 9 -10 26
-24 18 -23 -11z"/>
<path d="M1186 1274 c-3 -8 -2 -13 3 -9 5 3 12 -1 14 -7 3 -7 6 -3 6 10 1 25
-14 30 -23 6z"/>
<path d="M1286 1275 c-9 -26 -7 -32 5 -12 6 10 9 21 6 23 -2 3 -7 -2 -11 -11z"/>
<path d="M1357 1283 c-9 -9 -9 -51 1 -56 4 -3 7 10 7 29 0 19 0 34 -1 34 0 0
-4 -3 -7 -7z"/>
<path d="M1580 1279 c0 -9 12 -21 28 -28 22 -10 25 -10 12 1 -8 7 -21 19 -27
27 -11 13 -13 13 -13 0z"/>
<path d="M1792 1270 c0 -14 2 -19 5 -12 2 6 2 18 0 25 -3 6 -5 1 -5 -13z"/>
<path d="M1993 1250 c0 -25 2 -35 4 -22 2 12 2 32 0 45 -2 12 -4 2 -4 -23z"/>
<path d="M1702 1250 c0 -19 2 -27 5 -17 2 9 2 25 0 35 -3 9 -5 1 -5 -18z"/>
<path d="M1851 1254 c0 -11 3 -14 6 -6 3 7 2 16 -1 19 -3 4 -6 -2 -5 -13z"/>
<path d="M1050 1245 c0 -8 2 -15 4 -15 2 0 6 7 10 15 3 8 1 15 -4 15 -6 0 -10
-7 -10 -15z"/>
<path d="M1400 1253 c8 -3 18 -11 22 -17 5 -7 8 -4 8 7 0 11 -7 17 -22 16 -16
0 -18 -2 -8 -6z"/>
<path d="M1926 1243 c-6 -14 -5 -15 5 -6 7 7 10 15 7 18 -3 3 -9 -2 -12 -12z"/>
<path d="M2034 1241 c20 -22 26 -25 26 -13 0 4 -10 13 -22 21 -23 14 -23 14
-4 -8z"/>
<path d="M907 1218 c2 -5 13 -8 23 -8 10 0 21 3 23 8 3 4 -8 7 -23 7 -15 0
-26 -3 -23 -7z"/>
<path d="M1388 1213 c7 -3 16 -2 19 1 4 3 -2 6 -13 5 -11 0 -14 -3 -6 -6z"/>
<path d="M1598 1213 c7 -3 16 -2 19 1 4 3 -2 6 -13 5 -11 0 -14 -3 -6 -6z"/>
<path d="M1888 1213 c6 -2 18 -2 25 0 6 3 1 5 -13 5 -14 0 -19 -2 -12 -5z"/>
</g>
</svg>
